<svg width="83" height="62" viewBox="0 0 83 62" fill="none" xmlns="http://www.w3.org/2000/svg">
<path d="M83 31C83 31.9135 82.6356 32.7896 81.9871 33.4356C81.3385 34.0816 80.4589 34.4444 79.5417 34.4444H3.45833C2.54113 34.4444 1.66149 34.0816 1.01292 33.4356C0.36436 32.7896 0 31.9135 0 31C0 30.0865 0.36436 29.2104 1.01292 28.5644C1.66149 27.9185 2.54113 27.5556 3.45833 27.5556H79.5417C80.4589 27.5556 81.3385 27.9185 81.9871 28.5644C82.6356 29.2104 83 30.0865 83 31ZM3.45833 6.88889H79.5417C80.4589 6.88889 81.3385 6.52599 81.9871 5.88003C82.6356 5.23408 83 4.35797 83 3.44444C83 2.53092 82.6356 1.65481 81.9871 1.00886C81.3385 0.362897 80.4589 0 79.5417 0H3.45833C2.54113 0 1.66149 0.362897 1.01292 1.00886C0.36436 1.65481 0 2.53092 0 3.44444C0 4.35797 0.36436 5.23408 1.01292 5.88003C1.66149 6.52599 2.54113 6.88889 3.45833 6.88889ZM79.5417 55.1111H3.45833C2.54113 55.1111 1.66149 55.474 1.01292 56.12C0.36436 56.7659 0 57.642 0 58.5556C0 59.4691 0.36436 60.3452 1.01292 60.9911C1.66149 61.6371 2.54113 62 3.45833 62H79.5417C80.4589 62 81.3385 61.6371 81.9871 60.9911C82.6356 60.3452 83 59.4691 83 58.5556C83 57.642 82.6356 56.7659 81.9871 56.12C81.3385 55.474 80.4589 55.1111 79.5417 55.1111Z" fill="url(#paint0_linear_65_93)"/>
<defs>
<linearGradient id="paint0_linear_65_93" x1="8.5" y1="2.43534e-06" x2="74.5" y2="62" gradientUnits="userSpaceOnUse">
<stop stop-color="#E6A3AE"/>
<stop offset="0.355" stop-color="#E7AADD"/>
<stop offset="0.705" stop-color="#A1BCD9"/>
<stop offset="1" stop-color="#B1DBE4"/>
</linearGradient>
</defs>
</svg>
