<svg width="89" height="42" viewBox="0 0 89 42" fill="none" xmlns="http://www.w3.org/2000/svg">
<g clip-path="url(#clip0_11_40)">
<mask id="mask0_11_40" style="mask-type:luminance" maskUnits="userSpaceOnUse" x="0" y="0" width="89" height="42">
<path d="M0 0H89V42H0V0Z" fill="white"/>
</mask>
<g mask="url(#mask0_11_40)">
<mask id="mask1_11_40" style="mask-type:luminance" maskUnits="userSpaceOnUse" x="2" y="0" width="87" height="44">
<path d="M2 0H89V44H2V0Z" fill="white"/>
</mask>
<g mask="url(#mask1_11_40)">
<mask id="mask2_11_40" style="mask-type:luminance" maskUnits="userSpaceOnUse" x="1" y="2" width="87" height="37">
<path d="M1.84497 2.97101H87.511V38.746H1.84497V2.97101Z" fill="white"/>
</mask>
<g mask="url(#mask2_11_40)">
<path d="M18.545 38.364L11.145 29.705L17.498 22.547H12.898L7.85697 28.124V17.605H1.84497C2.47157 18.078 2.98509 18.6845 3.3483 19.3805C3.71152 20.0765 3.91533 20.8445 3.94497 21.629V38.364H7.85697V31.67L13.665 38.364H18.545Z" fill="black"/>
<path d="M69.217 22.546V38.364H65.302V26.569C65.2721 25.7847 65.0682 25.0168 64.705 24.321C64.3418 23.6252 63.8284 23.0189 63.202 22.546H69.217Z" fill="black"/>
<path d="M85.6389 35.031L87.5109 38.364H72.1299L80.0299 25.88H72.6499V22.546H87.1709L78.5979 35.03L85.6389 35.031Z" fill="black"/>
<path d="M25.938 33.805V25.88H28.684L30.557 22.546H25.938V17.605L22.028 19.888V22.542H19.147V25.876H22.028V34.015C22.022 34.5801 22.1276 35.1409 22.3385 35.6652C22.5494 36.1895 22.8616 36.6671 23.2573 37.0706C23.6529 37.4741 24.1243 37.7957 24.6443 38.017C25.1643 38.2382 25.7229 38.3548 26.288 38.36H29.388V35.03H27.142C26.82 35.0258 26.5128 34.8941 26.2879 34.6637C26.0629 34.4333 25.9385 34.123 25.942 33.801" fill="black"/>
<path d="M57.248 22.546L53.368 30.878L48.859 22.131L44.348 30.88L40.469 22.546H34.383C36.0612 23.487 37.4195 24.9087 38.283 26.628C39.228 28.583 44.16 38.745 44.16 38.745L48.86 29.587L53.56 38.745L61.452 22.545L57.248 22.546Z" fill="black"/>
<path d="M66.9139 17.617C66.3759 13.368 63.4239 8.53403 59.2209 5.01703C63.7519 6.64403 67.6749 5.86003 69.4459 2.97003C69.9839 7.21903 72.9359 12.053 77.1379 15.57C72.6089 13.943 68.6849 14.728 66.9139 17.617Z" fill="#EC1C24"/>
</g>
</g>
</g>
</g>
<defs>
<clipPath id="clip0_11_40">
<rect width="89" height="42" fill="white"/>
</clipPath>
</defs>
</svg>
