<svg width="130" height="130" viewBox="0 0 130 130" fill="none" xmlns="http://www.w3.org/2000/svg">
<path d="M100.63 93.3776C116.411 73.6648 113.074 44.7713 93.1762 28.8422C73.2784 12.9131 44.355 15.9804 28.574 35.6932C12.793 55.406 16.1303 84.2995 36.0281 100.229C55.9259 116.158 84.8493 113.09 100.63 93.3776Z" fill="url(#paint0_linear_65_86)"/>
<path d="M64.823 74.1508C73.8413 74.1508 81.1522 66.7713 81.1522 57.6683C81.1522 48.5654 73.8413 41.1859 64.823 41.1859C55.8046 41.1859 48.4938 48.5654 48.4938 57.6683C48.4938 66.7713 55.8046 74.1508 64.823 74.1508Z" fill="white"/>
<mask id="mask0_65_86" style="mask-type:luminance" maskUnits="userSpaceOnUse" x="24" y="28" width="82" height="83">
<path d="M64.823 110.412C87.3689 110.412 105.646 91.9636 105.646 69.2061C105.646 46.4486 87.3689 28 64.823 28C42.2771 28 24 46.4486 24 69.2061C24 91.9636 42.2771 110.412 64.823 110.412Z" fill="white"/>
</mask>
<g mask="url(#mask0_65_86)">
<path d="M64.8231 141.729C81.958 141.729 95.8486 127.708 95.8486 110.412C95.8486 93.1164 81.958 79.0955 64.8231 79.0955C47.6882 79.0955 33.7976 93.1164 33.7976 110.412C33.7976 127.708 47.6882 141.729 64.8231 141.729Z" fill="white"/>
</g>
<defs>
<linearGradient id="paint0_linear_65_86" x1="28.574" y1="35.6932" x2="100.63" y2="93.3776" gradientUnits="userSpaceOnUse">
<stop stop-color="#F4AAAA"/>
<stop offset="0.355" stop-color="#ECC6F5"/>
<stop offset="0.645" stop-color="#C9D3EC"/>
<stop offset="1" stop-color="#C9EEF4"/>
</linearGradient>
</defs>
</svg>
