<svg width="25" height="25" viewBox="0 0 25 25" fill="none" xmlns="http://www.w3.org/2000/svg">
<path d="M18.75 20.8333C18.75 19.1757 18.0915 17.586 16.9194 16.4139C15.7473 15.2418 14.1576 14.5833 12.5 14.5833M12.5 14.5833C10.8424 14.5833 9.25266 15.2418 8.08056 16.4139C6.90846 17.586 6.24998 19.1757 6.24998 20.8333M12.5 14.5833C14.8012 14.5833 16.6666 12.7178 16.6666 10.4166C16.6666 8.11546 14.8012 6.24998 12.5 6.24998C10.1988 6.24998 8.33331 8.11546 8.33331 10.4166C8.33331 12.7178 10.1988 14.5833 12.5 14.5833ZM22.9166 12.5C22.9166 18.2529 18.2529 22.9166 12.5 22.9166C6.74701 22.9166 2.08331 18.2529 2.08331 12.5C2.08331 6.74701 6.74701 2.08331 12.5 2.08331C18.2529 2.08331 22.9166 6.74701 22.9166 12.5Z" stroke="url(#paint0_linear_7_21)" stroke-width="2" stroke-linecap="round" stroke-linejoin="round"/>
<defs>
<linearGradient id="paint0_linear_7_21" x1="2.5" y1="1" x2="23" y2="23" gradientUnits="userSpaceOnUse">
<stop stop-color="#F69AA9"/>
<stop offset="0.3" stop-color="#E1ADED"/>
<stop offset="0.75" stop-color="#AAC6E5"/>
<stop offset="1" stop-color="#97D5E0"/>
</linearGradient>
</defs>
</svg>
