<svg width="131" height="44" viewBox="0 0 131 44" fill="none" xmlns="http://www.w3.org/2000/svg">
<rect x="6" y="8" width="112" height="29" rx="5" fill="#8B050F"/>
<path d="M48.757 24.895H47.392C46.261 24.895 45.689 24.414 45.689 23.348V20.124H49.394V18.499H45.689V17.03H51.266V21.164C50.564 21.476 49.901 21.593 49.147 21.593H47.561V23.036C47.561 23.322 47.626 23.426 47.912 23.426H48.718C49.602 23.426 51.643 23.192 52.865 22.542V16.588H54.711V20.28H56.349V21.788H54.711V27.079H52.865V24.076C51.669 24.609 49.927 24.895 48.757 24.895ZM63.6634 19.331C63.6634 21.06 62.2204 22.295 60.3744 22.295C58.4244 22.295 57.0984 20.956 57.0984 19.331C57.0984 17.615 58.5414 16.38 60.3744 16.38C62.3244 16.38 63.6634 17.706 63.6634 19.331ZM63.7544 26.338C64.7684 26.338 65.9774 26.234 66.8614 25.909L67.2514 27.287C66.3544 27.599 65.1454 27.781 63.8064 27.781H60.4524C59.5034 27.781 58.9444 27.326 58.9444 26.403V23.504H60.8294V26C60.8294 26.247 60.8684 26.338 61.1414 26.338H63.7544ZM66.7964 16.458V24.154H64.9114V16.458H66.7964ZM61.7914 19.331C61.7914 18.486 61.2714 17.849 60.3744 17.849C59.4904 17.849 58.9704 18.486 58.9704 19.331C58.9704 20.189 59.4904 20.826 60.3744 20.826C61.2714 20.826 61.7914 20.189 61.7914 19.331ZM77.8414 16.458V22.49H75.9564V20.033H74.4094C74.0454 21.359 72.7584 22.1 71.3154 22.1C69.5604 22.1 68.1044 21.19 68.1044 19.227C68.1044 17.42 69.5864 16.38 71.3154 16.38C72.8234 16.38 74.1494 17.186 74.4614 18.59H75.9564V16.458H77.8414ZM75.9564 23.075H77.8024V27.378C77.7764 27.755 77.5034 27.911 77.0484 27.911H71.7574C70.6654 27.911 69.9504 27.508 69.9504 26.416V23.075H71.8354V24.115H75.9564V23.075ZM72.6804 19.227C72.6804 18.434 72.1994 17.823 71.3154 17.823C70.4574 17.823 69.9504 18.434 69.9504 19.227C69.9504 20.046 70.4574 20.644 71.3154 20.644C72.1994 20.644 72.6804 20.046 72.6804 19.227ZM72.1734 26.507H75.9564V25.519H71.8354V26.143C71.8354 26.39 71.9264 26.507 72.1734 26.507ZM84.0052 18.837V17.368H86.5142C86.6182 17.108 86.6702 16.731 86.6182 16.484C86.5792 16.302 86.5142 16.081 86.4622 15.925L88.2302 15.483C88.3472 15.808 88.4252 16.146 88.4122 16.484C88.3992 16.77 88.3212 17.082 88.1912 17.368H90.3102C91.0512 17.368 91.2722 18.018 90.9862 18.629C90.7522 19.136 90.3752 19.578 89.9202 19.981C90.0892 20.007 90.2322 20.072 90.3492 20.15C90.9732 20.618 91.4802 20.982 92.0392 21.424L90.9732 22.581C90.4272 22.139 90.0892 21.905 89.5042 21.463C89.1532 21.203 88.9062 21.021 88.4512 20.982C88.0482 21.203 87.6192 21.385 87.1772 21.567C86.1242 21.996 85.0322 22.282 84.0312 22.49L83.5242 21.06C84.5382 20.787 85.5522 20.488 86.4752 20.111C87.3722 19.747 88.1652 19.331 88.7372 18.837H84.0052ZM88.6202 27.456H86.7092V24.44H82.4842V22.984H92.8842V24.44H88.6202V27.456ZM93.8801 18.603V17.16H95.7651C95.8431 16.939 95.8691 16.653 95.8301 16.432C95.8041 16.276 95.7391 16.029 95.6871 15.873L97.4551 15.431C97.5721 15.756 97.6371 16.094 97.6241 16.432C97.6111 16.692 97.5461 16.939 97.4421 17.16H98.8071C99.4831 17.16 99.6781 17.667 99.5351 18.226C99.3791 18.824 98.9761 19.5 98.4041 20.163C98.7811 20.176 99.1711 20.319 99.4051 20.566C99.8471 21.047 100.289 21.502 100.822 22.217L99.6131 23.27C99.1451 22.581 98.6381 22.061 98.2481 21.645C97.9621 21.346 97.7281 21.203 97.4031 21.19C96.4281 22.061 95.2451 22.815 94.1401 23.179L93.4771 21.788C95.2451 21.047 96.5191 19.89 97.1821 18.85C97.2861 18.694 97.2341 18.603 97.0261 18.603H93.8801ZM103.448 16.458V24.154H101.563V20.384H99.8601V18.941H101.563V16.458H103.448ZM97.0911 27.781C96.0641 27.781 95.5961 27.456 95.5961 26.455V23.582H97.4811V26C97.4811 26.247 97.5461 26.338 97.8191 26.338H100.913C101.667 26.338 102.616 26.325 103.5 26L103.864 27.352C102.59 27.781 101.784 27.781 100.965 27.781H97.0911Z" fill="#E0DDDD"/>
<path d="M25.5604 25.372L25.3677 25.2915L25.1749 25.372L13.5 30.2492V3.44444C13.5 1.83811 14.8541 0.5 16.5336 0.5H34.2017C35.8812 0.5 37.2354 1.83811 37.2354 3.44444V30.2492L25.5604 25.372Z" fill="#E0DDDD" stroke="#8C2121"/>
<path d="M24.1388 8.05094L27.3238 17.2939H25.3998L24.7498 15.3309H21.2268L20.5638 17.2939H18.6268L21.9028 8.05094H24.1388ZM21.6298 13.9919H24.3208L22.9688 9.72795L21.6298 13.9919ZM30.5667 8.05094V17.2939H28.6297V8.05094H30.5667Z" fill="#B41010"/>
</svg>
