<svg width="1006" height="1032" viewBox="0 0 1006 1032" fill="none" xmlns="http://www.w3.org/2000/svg">
<path fill-rule="evenodd" clip-rule="evenodd" d="M545.687 5.67109C517.19 5.41921 488.832 5.44585 460.335 5.74832C203.197 8.47755 5.5 227.457 5.5 484.877H0.5C0.5 224.987 200.14 3.50971 460.282 0.748601C488.811 0.445794 517.201 0.419114 545.731 0.671289C806.08 2.97252 1005.5 224.797 1005.5 484.877H1000.5C1000.5 227.257 803.016 7.94564 545.687 5.67109Z" fill="black"/>
<path fill-rule="evenodd" clip-rule="evenodd" d="M1.66211 486.068L5.33859 482.679L503.998 1023.68L1001.66 482.681L1005.34 486.066L504.002 1031.06L1.66211 486.068Z" fill="black"/>
<path fill-rule="evenodd" clip-rule="evenodd" d="M540.528 259.132C532.509 271.473 518.598 279.643 502.77 279.643C487.119 279.643 473.341 271.653 465.282 259.542L215.669 509.155C227.78 517.214 235.77 530.992 235.77 546.643C235.77 562.471 227.599 576.382 215.259 584.402L467.936 837.079C477.419 829.31 489.553 824.643 502.77 824.643C516.161 824.643 528.44 829.434 537.976 837.386L791.088 584.275C778.856 576.236 770.77 562.388 770.77 546.643C770.77 531.075 778.676 517.36 790.679 509.283L540.528 259.132ZM536.904 255.508C529.873 266.986 517.216 274.643 502.77 274.643C488.501 274.643 475.977 267.172 468.897 255.927C467.973 254.46 467.142 252.929 466.412 251.342L207.469 510.285C209.056 511.015 210.587 511.846 212.054 512.77C223.299 519.85 230.77 532.374 230.77 546.643C230.77 561.089 223.112 573.747 211.635 580.777C210.151 581.686 208.603 582.501 207 583.214L467.746 843.96C476.767 835.105 489.131 829.643 502.77 829.643C516.572 829.643 529.068 835.236 538.115 844.278C538.122 844.285 538.129 844.291 538.136 844.298L799.319 583.115C797.724 582.394 796.184 581.571 794.708 580.655C783.34 573.601 775.77 561.006 775.77 546.643C775.77 532.457 783.155 519.996 794.29 512.894C795.749 511.963 797.273 511.125 798.853 510.386L539.34 250.874C538.628 252.477 537.813 254.024 536.904 255.508Z" fill="black"/>
<g filter="url(#filter0_ii_19_251)">
<path fill-rule="evenodd" clip-rule="evenodd" d="M502.5 574.874C517.688 574.874 530 562.561 530 547.374C530 532.186 517.688 519.874 502.5 519.874C487.312 519.874 475 532.186 475 547.374C475 562.561 487.312 574.874 502.5 574.874ZM502.5 579.874C520.449 579.874 535 565.323 535 547.374C535 529.424 520.449 514.874 502.5 514.874C484.551 514.874 470 529.424 470 547.374C470 565.323 484.551 579.874 502.5 579.874Z" fill="black"/>
</g>
<path fill-rule="evenodd" clip-rule="evenodd" d="M189.5 569.874C201.926 569.874 212 559.8 212 547.374C212 534.947 201.926 524.874 189.5 524.874C177.074 524.874 167 534.947 167 547.374C167 559.8 177.074 569.874 189.5 569.874ZM189.5 574.874C204.688 574.874 217 562.561 217 547.374C217 532.186 204.688 519.874 189.5 519.874C174.312 519.874 162 532.186 162 547.374C162 562.561 174.312 574.874 189.5 574.874Z" fill="black"/>
<path fill-rule="evenodd" clip-rule="evenodd" d="M817.5 569.874C829.926 569.874 840 559.8 840 547.374C840 534.947 829.926 524.874 817.5 524.874C805.074 524.874 795 534.947 795 547.374C795 559.8 805.074 569.874 817.5 569.874ZM817.5 574.874C832.688 574.874 845 562.561 845 547.374C845 532.186 832.688 519.874 817.5 519.874C802.312 519.874 790 532.186 790 547.374C790 562.561 802.312 574.874 817.5 574.874Z" fill="black"/>
<path fill-rule="evenodd" clip-rule="evenodd" d="M502.5 255.874C514.926 255.874 525 245.8 525 233.374C525 220.947 514.926 210.874 502.5 210.874C490.074 210.874 480 220.947 480 233.374C480 245.8 490.074 255.874 502.5 255.874ZM502.5 260.874C517.688 260.874 530 248.561 530 233.374C530 218.186 517.688 205.874 502.5 205.874C487.312 205.874 475 218.186 475 233.374C475 248.561 487.312 260.874 502.5 260.874Z" fill="black"/>
<path fill-rule="evenodd" clip-rule="evenodd" d="M502.5 915C524.315 915 542 897.315 542 875.5C542 853.685 524.315 836 502.5 836C480.685 836 463 853.685 463 875.5C463 897.315 480.685 915 502.5 915ZM502.5 920C527.077 920 547 900.077 547 875.5C547 850.923 527.077 831 502.5 831C477.923 831 458 850.923 458 875.5C458 900.077 477.923 920 502.5 920Z" fill="black"/>
<path fill-rule="evenodd" clip-rule="evenodd" d="M24.768 393.606L490.414 859.252C492.304 861.142 490.966 864.374 488.293 864.374H477.5V890.374H489.5V895.374H475.5C473.843 895.374 472.5 894.031 472.5 892.374V862.374C472.5 860.717 473.843 859.374 475.5 859.374H483.465L21.2324 397.141L24.768 393.606ZM522.536 859.374L984.268 397.641L980.732 394.106L515.586 859.252C513.696 861.142 515.035 864.374 517.707 864.374H527V890.374H516.5V895.374H529C530.657 895.374 532 894.031 532 892.374V862.374C532 860.717 530.657 859.374 529 859.374H522.536Z" fill="black"/>
<path fill-rule="evenodd" clip-rule="evenodd" d="M517.5 550.374H488V545.374H517.5V550.374Z" fill="black"/>
<path fill-rule="evenodd" clip-rule="evenodd" d="M501.5 875.5V834.5H504.5V875.5H545V878.5H504.5V917.5H501.5V878.5H460.5V875.5H501.5Z" fill="black"/>
<defs>
<filter id="filter0_ii_19_251" x="469" y="513.874" width="67" height="67" filterUnits="userSpaceOnUse" color-interpolation-filters="sRGB">
<feFlood flood-opacity="0" result="BackgroundImageFix"/>
<feBlend mode="normal" in="SourceGraphic" in2="BackgroundImageFix" result="shape"/>
<feColorMatrix in="SourceAlpha" type="matrix" values="0 0 0 0 0 0 0 0 0 0 0 0 0 0 0 0 0 0 127 0" result="hardAlpha"/>
<feOffset dx="-1" dy="-1"/>
<feGaussianBlur stdDeviation="1"/>
<feComposite in2="hardAlpha" operator="arithmetic" k2="-1" k3="1"/>
<feColorMatrix type="matrix" values="0 0 0 0 0 0 0 0 0 0 0 0 0 0 0 0 0 0 0.25 0"/>
<feBlend mode="normal" in2="shape" result="effect1_innerShadow_19_251"/>
<feColorMatrix in="SourceAlpha" type="matrix" values="0 0 0 0 0 0 0 0 0 0 0 0 0 0 0 0 0 0 127 0" result="hardAlpha"/>
<feOffset dx="1" dy="1"/>
<feGaussianBlur stdDeviation="1"/>
<feComposite in2="hardAlpha" operator="arithmetic" k2="-1" k3="1"/>
<feColorMatrix type="matrix" values="0 0 0 0 0 0 0 0 0 0 0 0 0 0 0 0 0 0 0.25 0"/>
<feBlend mode="normal" in2="effect1_innerShadow_19_251" result="effect2_innerShadow_19_251"/>
</filter>
</defs>
</svg>
