<svg width="26" height="23" viewBox="0 0 26 23" fill="none" xmlns="http://www.w3.org/2000/svg">
<path d="M26 8.00001C26.0012 7.60596 25.9239 7.2156 25.7729 6.85165C25.6218 6.4877 25.3999 6.15742 25.12 5.88001C23.5417 4.30118 21.6678 3.04875 19.6054 2.19426C17.543 1.33977 15.3324 0.899963 13.1 0.899963C10.8676 0.899963 8.65701 1.33977 6.59459 2.19426C4.53217 3.04875 2.6583 4.30118 1.08 5.88001C0.522538 6.44481 0.209969 7.20644 0.209969 8.00001C0.209969 8.79359 0.522538 9.55522 1.08 10.12L10.2 19.24C10.1311 19.4874 10.0975 19.7432 10.1 20C10.1 20.7957 10.4161 21.5587 10.9787 22.1213C11.5413 22.6839 12.3044 23 13.1 23C13.8956 23 14.6587 22.6839 15.2213 22.1213C15.7839 21.5587 16.1 20.7957 16.1 20C16.1025 19.7432 16.0689 19.4874 16 19.24L25.12 10.12C25.3999 9.84261 25.6218 9.51233 25.7729 9.14838C25.9239 8.78443 26.0012 8.39407 26 8.00001ZM13.65 20.84C13.4856 20.9445 13.2948 21 13.1 21C12.9052 21 12.7144 20.9445 12.55 20.84C12.55 20.8387 12.5498 20.8374 12.5493 20.8362C12.5488 20.8349 12.5481 20.8338 12.5471 20.8329C12.5462 20.8319 12.5451 20.8312 12.5439 20.8307C12.5426 20.8302 12.5413 20.83 12.54 20.83C12.4057 20.7369 12.2956 20.6129 12.219 20.4685C12.1425 20.3241 12.1017 20.1635 12.1 20C12.1 19.7348 12.2054 19.4804 12.3929 19.2929C12.5804 19.1054 12.8348 19 13.1 19C13.3652 19 13.6196 19.1054 13.8071 19.2929C13.9946 19.4804 14.1 19.7348 14.1 20C14.0983 20.1635 14.0575 20.3241 13.981 20.4685C13.9044 20.613 13.7943 20.7369 13.66 20.83C13.6587 20.83 13.6574 20.8302 13.6561 20.8307C13.6549 20.8312 13.6538 20.8319 13.6529 20.8329C13.6519 20.8338 13.6512 20.8349 13.6507 20.8362C13.6502 20.8374 13.65 20.8387 13.65 20.84ZM14.84 17.56C14.3329 17.1959 13.7243 17 13.1 17C12.4757 17 11.8671 17.1959 11.36 17.56L8.16 14.36L12.4 10.12C12.5872 9.93728 12.8384 9.83499 13.1 9.83499C13.3616 9.83499 13.6128 9.93728 13.8 10.12L18.04 14.36L14.84 17.56ZM23.7 8.70001L19.46 12.94L15.22 8.70001C14.6483 8.15594 13.8892 7.85251 13.1 7.85251C12.3108 7.85251 11.5517 8.15594 10.98 8.70001L6.74 12.94L2.5 8.70001C2.40734 8.6085 2.33378 8.4995 2.28357 8.37934C2.23336 8.25918 2.2075 8.13025 2.2075 8.00001C2.2075 7.86978 2.23336 7.74085 2.28357 7.62069C2.33378 7.50053 2.40734 7.39153 2.5 7.30001C3.8905 5.90531 5.54257 4.79873 7.36153 4.04369C9.18048 3.28865 11.1306 2.89999 13.1 2.89999C15.0694 2.89999 17.0195 3.28865 18.8385 4.04369C20.6574 4.79873 22.3095 5.90531 23.7 7.30001C23.7948 7.3903 23.8703 7.4989 23.9218 7.61923C23.9734 7.73956 24 7.8691 24 8.00001C24 8.13093 23.9734 8.26047 23.9218 8.3808C23.8703 8.50113 23.7948 8.60973 23.7 8.70001Z" fill="white"/>
</svg>
