<svg xmlns="http://www.w3.org/2000/svg" viewBox="0 0 32 34" x="0px" y="0px"><title>Sport, baseball, softball, field</title><g><path d="M29,12a2.97273,2.97273,0,0,0-.88-2.12,16.99594,16.99594,0,0,0-24.04,0,3.01791,3.01791,0,0,0,0,4.24l9.12,9.12a2.73278,2.73278,0,0,0-.1.76,3,3,0,0,0,6,0,2.73276,2.73276,0,0,0-.1-.76l9.12-9.12A2.97273,2.97273,0,0,0,29,12ZM16.65,24.84a1.0252,1.0252,0,0,1-1.1,0,.0098.0098,0,0,0-.01-.01A1.02258,1.02258,0,0,1,15.1,24a1,1,0,0,1,2,0,1.02243,1.02243,0,0,1-.44.83A.00979.00979,0,0,0,16.65,24.84Zm1.19-3.28a2.98328,2.98328,0,0,0-3.48,0l-3.2-3.2L15.4,14.12a1.00208,1.00208,0,0,1,1.4,0l4.24,4.24ZM26.7,12.7l-4.24,4.24L18.22,12.7a3.07529,3.07529,0,0,0-4.24,0L9.74,16.94,5.5,12.7a.98386.98386,0,0,1,0-1.4,14.96812,14.96812,0,0,1,21.2,0,.96671.96671,0,0,1,0,1.4Z"/></g><text x="0" y="47" fill="#000000" font-size="5px" font-weight="bold" font-family="'Helvetica Neue', Helvetica, Arial-Unicode, Arial, Sans-serif">Created by Braja Omar Justico</text><text x="0" y="52" fill="#000000" font-size="5px" font-weight="bold" font-family="'Helvetica Neue', Helvetica, Arial-Unicode, Arial, Sans-serif">from the Noun Project</text></svg>